HIERARCHY
ROOT Hips
{
	OFFSET 0.00000 0.00000 0.00000
	CHANNELS 6 Xposition Yposition Zposition Zrotation Yrotation Xrotation 
	JOINT LHipJoint
	{
		OFFSET 0 0 0
		CHANNELS 3 Zrotation Yrotation Xrotation
		JOINT LeftHip
		{
			OFFSET 1.58895 -1.83665 0.71753
			CHANNELS 3 Zrotation Yrotation Xrotation
			JOINT LeftKnee
			{
				OFFSET 2.50528 -6.88321 0.00000
				CHANNELS 3 Zrotation Yrotation Xrotation
				JOINT LeftAnkle
				{
					OFFSET 2.63244 -7.23257 0.00000
					CHANNELS 3 Zrotation Yrotation Xrotation
					JOINT LeftToe
					{
						OFFSET 0.23691 -0.65090 1.72750
						CHANNELS 3 Zrotation Yrotation Xrotation
						End Site
						{
							OFFSET 0.00000 -0.00000 0.92561
						}
					}
				}
			}
		}
	}
	JOINT RHipJoint
	{
		OFFSET 0 0 0
		CHANNELS 3 Zrotation Yrotation Xrotation
		JOINT RightHip
		{
			OFFSET -1.51435 -1.83665 0.71753
			CHANNELS 3 Zrotation Yrotation Xrotation
			JOINT RightKnee
			{
				OFFSET -2.54551 -6.99375 0.00000
				CHANNELS 3 Zrotation Yrotation Xrotation
				JOINT RightAnkle
				{
					OFFSET -2.66027 -7.30903 0.00000
					CHANNELS 3 Zrotation Yrotation Xrotation
					JOINT RightToe
					{
						OFFSET -0.22981 -0.63138 2.03959
						CHANNELS 3 Zrotation Yrotation Xrotation
						End Site
						{
							OFFSET -0.00000 -0.00000 1.07060
						}
					}
				}
			}
		}
	}
	JOINT lowerback
	{
		OFFSET 0 0 0
		CHANNELS 3 Zrotation Yrotation Xrotation
		JOINT Chest
		{
			OFFSET -0.02651 1.86275 -0.11152
			CHANNELS 3 Zrotation Yrotation Xrotation
			JOINT Chest2
			{
				OFFSET 0.01019 1.86224 0.04087
				CHANNELS 3 Zrotation Yrotation Xrotation
				JOINT lowerneck
				{
					OFFSET 0 0 0
					CHANNELS 3 Zrotation Yrotation Xrotation
					JOINT Neck
					{
						OFFSET -0.01926 1.80512 0.08867
						CHANNELS 3 Zrotation Yrotation Xrotation
						JOINT Head
						{
							OFFSET 0.05516 1.76451 -0.38475
							CHANNELS 3 Zrotation Yrotation Xrotation
							End Site
							{
								OFFSET 0.01592 1.82587 -0.14001
							}
						}
					}
				}
				JOINT LeftCollar
				{
					OFFSET 0 0 0
					CHANNELS 3 Zrotation Yrotation Xrotation
					JOINT LeftShoulder
					{
						OFFSET 3.47116 1.51376 0.14491
CHANNELS 3 Zrotation Xrotation Yrotation
						JOINT LeftElbow
						{
OFFSET 0 -4.780950 0.000000
CHANNELS 3 Zrotation Xrotation Yrotation
							JOINT LeftWrist
							{
OFFSET 0 -3.586150 -0.000000
CHANNELS 3 Zrotation Xrotation Yrotation
								JOINT lhand
								{
									OFFSET 0 0 0
CHANNELS 3 Zrotation Xrotation Yrotation
									JOINT LFingers
									{
OFFSET 0 -0.659810 0.000000
CHANNELS 3 Zrotation Xrotation Yrotation
										End Site
										{
OFFSET 0 -0.531960 0.000000
										}
									}
								}
								JOINT LThumb
								{
OFFSET 0 0.000000 0.000000
CHANNELS 3 Zrotation Xrotation Yrotation
									End Site
									{
OFFSET 0 -0.540080 0.540080
									}
								}
							}
						}
					}
				}
				JOINT RightCollar
				{
					OFFSET 0 0 0
					CHANNELS 3 Zrotation Yrotation Xrotation
					JOINT RightShoulder
					{
						OFFSET -3.31725 1.61216 0.35156
CHANNELS 3 Zrotation Xrotation Yrotation
						JOINT RightElbow
						{
OFFSET 0 -4.489130 0.000000
CHANNELS 3 Zrotation Xrotation Yrotation
							JOINT RightWrist
							{
OFFSET 0 -3.705100 0.000000
CHANNELS 3 Zrotation Xrotation Yrotation
								JOINT rhand
								{
									OFFSET 0 0 0
CHANNELS 3 Zrotation Xrotation Yrotation
									JOINT RFingers
									{
OFFSET 0 -0.449140 0.000000
CHANNELS 3 Zrotation Xrotation Yrotation
										End Site
										{
OFFSET 0 -0.362110 0.000000
										}
									}
								}
								JOINT RThumb
								{
OFFSET 0 0.000000 0.000000
CHANNELS 3 Zrotation Xrotation Yrotation
									End Site
									{
OFFSET 0 -0.367630 0.367630
									}
								}
							}
						}
					}
				}
			}
		}
	}
}
MOTION
Frames: 8
Frame Time: 0.008333333333333333
-0.717200 18.689400 5.589500 -1.922700 -3.640000 0.734100 0.000000 0.000000 0.000000 -12.927600 -7.540900 -1.452100 1.285900 7.185600 20.266500 1.618100 6.072700 -26.876300 7.981800 -16.105800 -52.497000 0.000000 0.000000 0.000000 0.000000 0.000000 0.000000 0.000000 0.000000 0.000000 -0.000000 -0.000000 0.000000 -0.000000 -0.000000 0.000000 -1.644800 0.686800 2.309600 0.299400 0.865900 -1.498100 1.188200 0.467100 -2.862500 0.918100 -0.636000 -14.078900 1.378400 -1.522700 25.158300 0.134800 -0.453600 10.373300 -0.000000 -0.000000 0.000000 -1.889500 12.617400 -20.794900 22.089800 -33.078400 6.634800 10.310400 8.144000 26.013600 0.000000 0.000000 0.000000 -7.125000 0.000000 0.000000 -11.753800 4.065900 -11.132000 -0.000000 -0.000000 0.000000 -0.054500 20.692300 22.842800 -26.742500 -37.932500 -9.340400 -2.746300 18.782700 37.635600 0.000000 0.000000 0.000000 7.125000 0.000000 -0.000000 39.018700 63.386900 -18.827200
-0.714352 18.690177 5.589241 -1.876179 -3.617300 0.750585 0.000000 0.000000 0.000000 -12.985169 -7.546942 -1.480755 1.286332 7.186895 20.270125 1.615079 6.077879 -26.857830 7.992934 -16.113999 -52.537048 0.000000 0.000000 0.000000 0.000000 0.000000 0.000000 0.000000 0.000000 0.000000 0.000000 0.000000 0.000000 0.000000 0.000000 0.000000 -1.682949 0.674630 2.309945 0.290251 0.847775 -1.524252 1.200801 0.459073 -2.889602 0.955300 -0.625211 -14.030307 1.352421 -1.508977 25.151309 0.121249 -0.447213 10.360699 0.000000 0.000000 0.000000 -1.845827 12.632936 -20.843579 22.118282 -33.110421 6.650336 10.363826 8.102226 26.009026 0.000000 0.000000 0.000000 -7.125000 0.000000 0.000000 -11.721520 4.064174 -11.100497 0.000000 0.000000 0.000000 -0.052946 20.767218 22.845993 -26.750958 -37.940699 -9.345579 -1.896573 18.322320 37.888662 0.000000 0.000000 0.000000 7.125000 0.000000 0.000000 40.180008 63.352807 -19.449413
-0.711939 18.690736 5.589490 -1.857616 -3.617767 0.760680 0.000000 0.000000 0.000000 -13.013908 -7.549716 -1.494087 1.286836 7.188189 20.273968 1.616052 6.087995 -26.870514 7.998041 -16.117769 -52.555600 0.000000 0.000000 0.000000 0.000000 0.000000 0.000000 0.000000 0.000000 0.000000 0.000000 0.000000 0.000000 0.000000 0.000000 0.000000 -1.699821 0.666382 2.298816 0.298967 0.836549 -1.540818 1.219793 0.454096 -2.900436 0.969406 -0.618489 -13.989921 1.312207 -1.491550 25.149982 0.106972 -0.442932 10.351801 0.000000 0.000000 0.000000 -1.832872 12.640048 -20.876935 22.151631 -33.147889 6.668559 10.435408 8.021672 26.007719 0.000000 0.000000 0.000000 -7.125000 0.000000 0.000000 -11.678492 4.056928 -11.059553 0.000000 0.000000 0.000000 -0.112830 20.823617 22.945337 -26.743585 -37.933576 -9.341026 -1.759258 18.230564 38.026185 0.000000 0.000000 0.000000 7.125000 0.000000 0.000000 40.495354 63.420312 -19.690873
-0.709962 18.690782 5.589895 -1.865717 -3.617591 0.772458 0.000000 0.000000 0.000000 -13.014287 -7.580514 -1.494512 1.287354 7.189484 20.277970 1.622611 6.082307 -26.913586 7.989812 -16.111746 -52.526020 0.000000 0.000000 0.000000 0.000000 0.000000 0.000000 0.000000 0.000000 0.000000 0.000000 0.000000 0.000000 0.000000 0.000000 0.000000 -1.701778 0.663352 2.276037 0.320951 0.833459 -1.543320 1.243879 0.452759 -2.890407 0.946688 -0.624084 -14.016848 1.301664 -1.492047 25.184139 0.106938 -0.446061 10.369531 0.000000 0.000000 0.000000 -1.830777 12.623237 -20.909937 22.175524 -33.174833 6.681631 10.425727 7.977417 26.038321 0.000000 0.000000 0.000000 -7.125000 0.000000 0.000000 -11.685533 4.027958 -11.072932 0.000000 0.000000 0.000000 -0.181408 20.843052 23.042239 -26.729516 -37.920028 -9.332400 -1.726713 18.175648 38.101559 0.000000 0.000000 0.000000 7.125000 0.000000 0.000000 40.626774 63.468426 -19.810880
-0.707697 18.690700 5.590552 -1.886244 -3.608573 0.788879 0.000000 0.000000 0.000000 -13.004061 -7.637286 -1.486709 1.287464 7.189783 20.278905 1.629334 6.077393 -26.958230 7.977771 -16.102873 -52.482520 0.000000 0.000000 0.000000 0.000000 0.000000 0.000000 0.000000 0.000000 0.000000 0.000000 0.000000 0.000000 0.000000 0.000000 0.000000 -1.688220 0.662040 2.244822 0.346223 0.833455 -1.539357 1.262670 0.452574 -2.868896 0.910241 -0.635996 -14.067500 1.318549 -1.505901 25.223201 0.117158 -0.453217 10.394060 0.000000 0.000000 0.000000 -1.843839 12.579716 -20.884080 22.174602 -33.173835 6.681126 10.335035 8.046305 26.088212 0.000000 0.000000 0.000000 -7.125000 0.000000 0.000000 -11.741887 3.989558 -11.137259 0.000000 0.000000 0.000000 -0.232447 20.846122 23.094387 -26.723041 -37.913795 -9.328433 -1.687870 18.103980 38.139811 0.000000 0.000000 0.000000 7.125000 0.000000 0.000000 40.715343 63.486781 -19.878761
-0.704990 18.690763 5.591668 -1.902372 -3.595535 0.804576 0.000000 0.000000 0.000000 -13.002301 -7.699342 -1.471686 1.286795 7.188043 20.273693 1.632810 6.089171 -26.989798 7.969149 -16.096485 -52.451380 0.000000 0.000000 0.000000 0.000000 0.000000 0.000000 0.000000 0.000000 0.000000 0.000000 0.000000 0.000000 0.000000 0.000000 0.000000 -1.665112 0.661189 2.215474 0.365286 0.834126 -1.539745 1.269617 0.452552 -2.852737 0.879507 -0.647381 -14.080555 1.341638 -1.520808 25.229862 0.128571 -0.460125 10.399501 0.000000 0.000000 0.000000 -1.867514 12.525819 -20.800191 22.148270 -33.144171 6.666738 10.256624 8.177987 26.138345 0.000000 0.000000 0.000000 -7.125000 0.000000 0.000000 -11.790806 3.949429 -11.194703 0.000000 0.000000 0.000000 -0.257235 20.855867 23.094453 -26.723133 -37.913864 -9.328474 -1.689713 18.078298 38.161357 0.000000 0.000000 0.000000 7.125000 0.000000 0.000000 40.742262 63.503464 -19.909864
-0.702407 18.690971 5.593257 -1.899230 -3.585817 0.812400 0.000000 0.000000 0.000000 -13.023450 -7.750557 -1.448298 1.285450 7.184421 20.262946 1.635183 6.113229 -27.020908 7.961860 -16.091110 -52.425229 0.000000 0.000000 0.000000 0.000000 0.000000 0.000000 0.000000 0.000000 0.000000 0.000000 0.000000 0.000000 0.000000 0.000000 0.000000 -1.653631 0.660993 2.197174 0.374536 0.834700 -1.551430 1.272702 0.452814 -2.854480 0.849082 -0.655447 -14.039483 1.362074 -1.528754 25.205097 0.140070 -0.464675 10.382921 0.000000 0.000000 0.000000 -1.885847 12.488861 -20.726567 22.111219 -33.102433 6.646506 10.280281 8.243493 26.176269 0.000000 0.000000 0.000000 -7.125000 0.000000 0.000000 -11.778050 3.909302 -11.191072 0.000000 0.000000 0.000000 -0.264412 20.879731 23.062942 -26.714902 -37.905916 -9.323399 -1.763212 18.150245 38.181830 0.000000 0.000000 0.000000 7.125000 0.000000 0.000000 40.698058 63.538596 -19.917538
-0.700533 18.691308 5.594963 -1.866506 -3.576249 0.814884 0.000000 0.000000 0.000000 -13.076275 -7.801646 -1.419456 1.284254 7.181175 20.253129 1.642305 6.124922 -27.077646 7.947782 -16.080740 -52.374319 0.000000 0.000000 0.000000 0.000000 0.000000 0.000000 0.000000 0.000000 0.000000 0.000000 0.000000 0.000000 0.000000 0.000000 0.000000 -1.687712 0.657766 2.184745 0.379546 0.829453 -1.572772 1.297228 0.451237 -2.869918 0.791765 -0.659562 -14.002205 1.405002 -1.531075 25.211184 0.164947 -0.466233 10.378673 0.000000 0.000000 0.000000 -1.890087 12.488110 -20.715954 22.082287 -33.069824 6.630625 10.359711 8.198375 26.191947 0.000000 0.000000 0.000000 -7.125000 0.000000 0.000000 -11.731148 3.884511 -11.149948 0.000000 0.000000 0.000000 -0.281269 20.908582 23.045943 -26.688366 -37.880379 -9.307095 -1.882830 18.276678 38.198468 0.000000 0.000000 0.000000 7.125000 0.000000 0.000000 40.603913 63.583323 -19.905588
